<?xml version="1.0" encoding="utf-8"?>
<!-- Generator: Adobe Illustrator 16.0.0, SVG Export Plug-In . SVG Version: 6.00 Build 0)  -->
<!DOCTYPE svg PUBLIC "-//W3C//DTD SVG 1.1//EN" "http://www.w3.org/Graphics/SVG/1.1/DTD/svg11.dtd">
<svg version="1.1" id="Capa_1" xmlns="http://www.w3.org/2000/svg" xmlns:xlink="http://www.w3.org/1999/xlink" x="0px" y="0px"
	 width="93.243px" height="83.784px" viewBox="0 0 93.243 83.784" enable-background="new 0 0 93.243 83.784" xml:space="preserve">
<path fill="#8DC3C9" d="M88.493,15.013v64.56H15.957L4.284,67.899V15.013c0-2.477,2.008-4.485,4.485-4.485h75.238
	C86.485,10.528,88.493,12.536,88.493,15.013"/>
<path fill="#D6803B" d="M88.493,23.947H4.284v-8.934c0-2.477,2.008-4.485,4.485-4.485h75.238c2.479,0,4.486,2.008,4.486,4.485
	V23.947z"/>
<path fill="#733B88" d="M71.89,4.535L71.89,4.535c-1.953,0-3.537,1.583-3.537,3.536v6.627h7.074V8.071
	C75.427,6.118,73.843,4.535,71.89,4.535 M71.89,10.423c-1.203,0-2.179-0.975-2.179-2.178s0.976-2.178,2.179-2.178
	s2.178,0.975,2.178,2.178S73.093,10.423,71.89,10.423"/>
<rect x="62.683" y="31.404" fill="#FFFFFF" width="6.129" height="6.13"/>
<rect x="53.002" y="31.404" fill="#FFFFFF" width="6.13" height="6.13"/>
<rect x="43.323" y="31.404" fill="#FFFFFF" width="6.13" height="6.13"/>
<rect x="33.644" y="31.404" fill="#FFFFFF" width="6.13" height="6.13"/>
<rect x="23.965" y="31.404" fill="#FFFFFF" width="6.13" height="6.13"/>
<rect x="14.285" y="31.404" fill="#FFFFFF" width="6.13" height="6.13"/>
<rect x="72.36" y="41.728" fill="#FFFFFF" width="6.131" height="6.13"/>
<rect x="62.683" y="41.728" fill="#FFFFFF" width="6.129" height="6.13"/>
<rect x="53.002" y="41.728" fill="#FFFFFF" width="6.13" height="6.13"/>
<rect x="43.323" y="41.728" fill="#FFFFFF" width="6.13" height="6.13"/>
<rect x="33.644" y="41.728" fill="#FFFFFF" width="6.13" height="6.13"/>
<rect x="23.965" y="41.728" fill="#FFFFFF" width="6.13" height="6.13"/>
<rect x="14.285" y="41.728" fill="#FFFFFF" width="6.13" height="6.13"/>
<rect x="72.36" y="52.053" fill="#FFFFFF" width="6.131" height="6.13"/>
<rect x="62.683" y="52.053" fill="#FFFFFF" width="6.129" height="6.13"/>
<rect x="53.002" y="52.053" fill="#FFFFFF" width="6.13" height="6.13"/>
<rect x="43.323" y="52.053" fill="#FFFFFF" width="6.13" height="6.13"/>
<rect x="33.644" y="52.053" fill="#FFFFFF" width="6.13" height="6.13"/>
<rect x="23.965" y="52.053" fill="#FFFFFF" width="6.13" height="6.13"/>
<rect x="14.285" y="52.053" fill="#FFFFFF" width="6.13" height="6.13"/>
<rect x="72.36" y="62.377" fill="#FFFFFF" width="6.131" height="6.13"/>
<rect x="62.683" y="62.377" fill="#FFFFFF" width="6.129" height="6.13"/>
<rect x="53.002" y="62.377" fill="#FFFFFF" width="6.13" height="6.13"/>
<rect x="43.323" y="62.377" fill="#FFFFFF" width="6.13" height="6.13"/>
<rect x="33.644" y="62.377" fill="#FFFFFF" width="6.13" height="6.13"/>
<path fill="#733B88" d="M20.887,4.535L20.887,4.535c-1.953,0-3.537,1.583-3.537,3.536v6.627h7.074V8.071
	C24.424,6.118,22.84,4.535,20.887,4.535 M20.887,10.423c-1.203,0-2.178-0.975-2.178-2.178s0.975-2.178,2.178-2.178
	s2.178,0.975,2.178,2.178S22.09,10.423,20.887,10.423"/>
<polygon fill="#FFFFFF" points="15.957,67.899 4.283,67.899 15.957,79.573 "/>
</svg>
