<?xml version="1.0" encoding="utf-8"?>
<!-- Generator: Adobe Illustrator 16.0.0, SVG Export Plug-In . SVG Version: 6.00 Build 0)  -->
<!DOCTYPE svg PUBLIC "-//W3C//DTD SVG 1.1//EN" "http://www.w3.org/Graphics/SVG/1.1/DTD/svg11.dtd">
<svg version="1.1" id="Capa_1" xmlns="http://www.w3.org/2000/svg" xmlns:xlink="http://www.w3.org/1999/xlink" x="0px" y="0px"
	 width="127.657px" height="47.667px" viewBox="0 0 127.657 47.667" enable-background="new 0 0 127.657 47.667"
	 xml:space="preserve">
<rect x="83.657" y="12.122" fill-rule="evenodd" clip-rule="evenodd" fill="#D6803B" width="40.505" height="29.598"/>
<rect x="87.989" y="32.862" fill-rule="evenodd" clip-rule="evenodd" fill="#733B88" width="4.979" height="5.348"/>
<polygon fill-rule="evenodd" clip-rule="evenodd" fill="#E7C396" points="83.011,16.273 75.912,16.273 54.47,2.926 34.212,7.779 
	58.586,30.462 65.678,37.479 83.011,37.479 "/>
<rect x="79.784" y="14.612" fill-rule="evenodd" clip-rule="evenodd" fill="#F0F0F0" width="3.873" height="25.079"/>
<path fill-rule="evenodd" clip-rule="evenodd" fill="#8DC3C9" d="M53.748,7.78H8.792c-2.411,0-4.385,1.973-4.385,4.385v26.315
	c0,2.413,1.974,4.387,4.385,4.387h44.956c2.412,0,4.386-1.974,4.386-4.387V12.165C58.134,9.752,56.16,7.78,53.748,7.78"/>
<rect x="4.407" y="14.953" fill-rule="evenodd" clip-rule="evenodd" fill="#585757" width="53.727" height="7.081"/>
<rect x="23.935" y="25.323" fill-rule="evenodd" clip-rule="evenodd" fill="#FFFFFF" width="34.2" height="4.455"/>
<rect x="8.651" y="25.323" fill-rule="evenodd" clip-rule="evenodd" fill="#FFFFFF" width="13.347" height="4.455"/>
<path fill-rule="evenodd" clip-rule="evenodd" fill="#E7C396" d="M67.061,19.407H43.319c-3.424,0-6.224,2.8-6.224,6.223v0.002
	c0,3.421,2.8,6.221,6.224,6.221h23.741V19.407z"/>
<path fill-rule="evenodd" clip-rule="evenodd" fill="#FFFFFF" d="M46.5,21.62h-3.597c-1.978,0-3.596,1.619-3.596,3.595v0.831
	c0,1.978,1.618,3.595,3.596,3.595H46.5V21.62z"/>
</svg>
