<?xml version="1.0" encoding="utf-8"?>
<!-- Generator: Adobe Illustrator 16.0.0, SVG Export Plug-In . SVG Version: 6.00 Build 0)  -->
<!DOCTYPE svg PUBLIC "-//W3C//DTD SVG 1.1//EN" "http://www.w3.org/Graphics/SVG/1.1/DTD/svg11.dtd">
<svg version="1.1" id="Capa_1" xmlns="http://www.w3.org/2000/svg" xmlns:xlink="http://www.w3.org/1999/xlink" x="0px" y="0px"
	 width="12.375px" height="8.375px" viewBox="0 0 12.375 8.375" enable-background="new 0 0 12.375 8.375" xml:space="preserve">
<path fill-rule="evenodd" clip-rule="evenodd" fill="#733B88" d="M11.204,1.96c0-0.239-0.095-0.456-0.245-0.621
	c-0.003-0.003-0.004-0.006-0.006-0.01c-0.003-0.003-0.006-0.004-0.009-0.007c-0.171-0.179-0.413-0.292-0.682-0.292H0.941
	c-0.27,0-0.511,0.113-0.683,0.292C0.256,1.325,0.252,1.326,0.251,1.33C0.248,1.333,0.247,1.336,0.245,1.34
	C0.094,1.505,0,1.721,0,1.96v5.483c0,0.245,0.097,0.467,0.255,0.633c0.003,0.004,0.004,0.008,0.008,0.012l0.004,0.002
	c0.171,0.174,0.409,0.284,0.675,0.284h9.321c0.265,0,0.502-0.11,0.675-0.285c0,0,0.003-0.001,0.004-0.001
	c0.003-0.004,0.004-0.008,0.007-0.011c0.158-0.167,0.256-0.389,0.256-0.634V1.96z M7.536,4.413l3.229-2.678
	c0.032,0.069,0.051,0.146,0.051,0.226v5.483c0,0.072-0.016,0.142-0.04,0.205L7.536,4.413z M10.263,1.414
	c0.081,0,0.157,0.018,0.228,0.049l-4.89,4.052L0.713,1.463C0.784,1.432,0.86,1.414,0.941,1.414H10.263z M0.429,7.649
	C0.403,7.585,0.387,7.516,0.387,7.444V1.96c0-0.08,0.02-0.156,0.052-0.226l3.229,2.678L0.429,7.649z M0.941,7.991
	c-0.089,0-0.173-0.022-0.248-0.06L3.966,4.66l1.512,1.253c0.035,0.03,0.08,0.045,0.123,0.045c0.046,0,0.09-0.015,0.125-0.045
	L7.238,4.66l3.272,3.271c-0.076,0.037-0.158,0.06-0.248,0.06H0.941z"/>
<g>
</g>
<g>
</g>
<g>
</g>
<g>
</g>
<g>
</g>
<g>
</g>
</svg>
