<?xml version="1.0" encoding="utf-8"?>
<!-- Generator: Adobe Illustrator 16.0.0, SVG Export Plug-In . SVG Version: 6.00 Build 0)  -->
<!DOCTYPE svg PUBLIC "-//W3C//DTD SVG 1.1//EN" "http://www.w3.org/Graphics/SVG/1.1/DTD/svg11.dtd">
<svg version="1.1" id="Capa_1" xmlns="http://www.w3.org/2000/svg" xmlns:xlink="http://www.w3.org/1999/xlink" x="0px" y="0px"
	 width="24.324px" height="62.162px" viewBox="0 0 24.324 62.162" enable-background="new 0 0 24.324 62.162" xml:space="preserve">
<g>
	<path fill="#FFFFFF" d="M-24.993,47.997v4.797h5.031v1.539h-11.375V47.2h1.211v5.594h3.922v-4.797H-24.993z"/>
	<path fill="#FFFFFF" d="M-30.579,44.052v1.539h-1.57v-1.539H-30.579z M-19.962,44.052v1.539h-8.453v-1.539H-19.962z"/>
	<path fill="#FFFFFF" d="M-19.962,40.021v1.539h-12.187v-1.539H-19.962z"/>
	<path fill="#FFFFFF" d="M-30.454,35.513h2.039v-1.602h1.141v1.602h5.132c0.396,0,0.676-0.082,0.836-0.246
		c0.162-0.164,0.242-0.382,0.242-0.652c0-0.089-0.012-0.188-0.035-0.297s-0.047-0.2-0.074-0.273l1.055-0.211
		c0.094,0.114,0.171,0.284,0.23,0.508c0.061,0.224,0.09,0.445,0.09,0.664c0,0.625-0.188,1.122-0.566,1.492
		c-0.377,0.37-0.969,0.555-1.777,0.555h-5.132v1.344h-1.141v-1.344h-2.039V35.513z"/>
	<path fill="#FFFFFF" d="M-27.055,28.263l-0.047,0.789c0,0.406,0.097,0.749,0.289,1.027c0.193,0.278,0.464,0.493,0.813,0.645h6.039
		v1.539h-8.453v-1.375l1.234-0.148c-0.438-0.239-0.778-0.535-1.023-0.887c-0.245-0.352-0.367-0.757-0.367-1.215
		c0-0.114,0.009-0.224,0.027-0.328c0.019-0.104,0.038-0.19,0.059-0.258L-27.055,28.263z"/>
	<path fill="#FFFFFF" d="M-24.266,27.181c-1.25,0-2.28-0.339-3.09-1.016c-0.81-0.677-1.215-1.597-1.215-2.758
		c0-1.172,0.404-2.098,1.211-2.777c0.808-0.68,1.839-1.02,3.094-1.02h0.172c1.261,0,2.292,0.339,3.093,1.016
		c0.803,0.677,1.203,1.599,1.203,2.766s-0.402,2.09-1.207,2.77s-1.834,1.02-3.089,1.02H-24.266z M-24.094,25.642
		c0.896,0,1.636-0.188,2.218-0.566c0.584-0.378,0.875-0.938,0.875-1.684c0-0.734-0.291-1.292-0.875-1.672
		c-0.582-0.38-1.322-0.57-2.218-0.57h-0.172c-0.885,0-1.622,0.191-2.211,0.574c-0.588,0.383-0.883,0.944-0.883,1.684
		c0,0.734,0.294,1.29,0.883,1.668c0.589,0.378,1.326,0.566,2.211,0.566H-24.094z"/>
	<path fill="#FFFFFF" d="M-22.235,12.813c-0.338,0-0.613,0.129-0.828,0.387c-0.213,0.258-0.4,0.746-0.562,1.465
		c-0.213,0.995-0.513,1.759-0.898,2.293c-0.385,0.534-0.901,0.801-1.547,0.801c-0.688,0-1.276-0.293-1.766-0.879
		c-0.489-0.586-0.734-1.345-0.734-2.277c0-0.958,0.261-1.734,0.781-2.328c0.521-0.594,1.128-0.878,1.82-0.852l0.047,0.016v1.469
		c-0.364,0-0.695,0.16-0.992,0.48s-0.445,0.726-0.445,1.215c0,0.542,0.123,0.946,0.367,1.215c0.245,0.269,0.537,0.402,0.875,0.402
		c0.333,0,0.591-0.116,0.773-0.348c0.183-0.231,0.349-0.71,0.5-1.434c0.219-1.036,0.529-1.823,0.93-2.359
		c0.401-0.536,0.925-0.805,1.57-0.805c0.75,0,1.363,0.304,1.836,0.91c0.475,0.606,0.711,1.399,0.711,2.379
		c0,1.078-0.273,1.927-0.82,2.547s-1.184,0.914-1.914,0.883l-0.047-0.016v-1.469c0.547-0.026,0.947-0.229,1.199-0.609
		c0.254-0.38,0.379-0.825,0.379-1.336c0-0.547-0.115-0.976-0.348-1.285C-21.579,12.969-21.876,12.813-22.235,12.813z"/>
</g>
<g>
</g>
<g>
</g>
<g>
</g>
<g>
</g>
<g>
</g>
<g>
</g>
</svg>
