<?xml version="1.0" encoding="utf-8"?>
<!-- Generator: Adobe Illustrator 16.0.0, SVG Export Plug-In . SVG Version: 6.00 Build 0)  -->
<!DOCTYPE svg PUBLIC "-//W3C//DTD SVG 1.1//EN" "http://www.w3.org/Graphics/SVG/1.1/DTD/svg11.dtd">
<svg version="1.1" id="Capa_1" xmlns="http://www.w3.org/2000/svg" xmlns:xlink="http://www.w3.org/1999/xlink" x="0px" y="0px"
	 width="309.459px" height="293.243px" viewBox="0 0 309.459 293.243" enable-background="new 0 0 309.459 293.243"
	 xml:space="preserve">
<g>
	<g>
		<circle fill="#733B88" cx="150.867" cy="184.669" r="102.566"/>
		<g>
			<defs>
				<circle id="SVGID_1_" cx="150.867" cy="184.669" r="102.566"/>
			</defs>
			<clipPath id="SVGID_2_">
				<use xlink:href="#SVGID_1_"  overflow="visible"/>
			</clipPath>
			<g clip-path="url(#SVGID_2_)">
				<path fill="#E5B580" d="M185.406,161.458l-1.465,19.465c4.162,1.034,4.162-10.814,4.162-10.814S190.794,160.519,185.406,161.458
					z"/>
				<path fill="#E5B580" d="M118.362,161.458l1.464,19.465c-4.161,1.034-4.161-10.814-4.161-10.814S112.972,160.519,118.362,161.458
					z"/>
				<rect x="142.579" y="218.376" fill="#E5B580" width="17.485" height="9.295"/>
				<path fill="#70543B" d="M151.369,106.504v-0.028c-0.058,0.004-0.112,0.01-0.169,0.015c-0.058-0.005-0.113-0.011-0.17-0.015
					v0.028c-34.256,2.645-34.86,27.055-34.86,27.055l3.853,55.922c0,0,5.785,30.216,31.008,30.343
					c25.223,0.125,32.938-30.343,32.938-30.343l3.406-55.922C187.375,133.559,185.626,109.149,151.369,106.504z"/>
				<path fill="#E5B580" d="M170.812,129.288c-6.16,3.162-17.657,3.877-18.4,3.921c-0.743-0.044-12.24-0.759-18.399-3.921
					c-3.664-1.245-14.667,1.796-11.377,48.646c3.531,18.046,13.535,13.338,13.535,13.338l9.219-5.295c0,0,1.346,1.5,3.334,0.785
					c0.27,0.207,0.877,0.726,3.648,0.781v0.003c0.016-0.001,0.026-0.001,0.04-0.001c0.013,0,0.024,0,0.04,0.001v-0.003
					c2.771-0.056,3.379-0.574,3.647-0.781c1.99,0.715,3.333-0.785,3.333-0.785l9.221,5.295c0,0,10.004,4.708,13.535-13.338
					C185.478,131.083,174.476,128.042,170.812,129.288z"/>
				<path fill="#E5B580" d="M162.076,197.003c-0.77,1.828-4.672-0.77-9.723-0.77c-5.05,0-8.373,2.502-9.527,0.77
					c-1.156-1.732,4.574-4.139,9.625-4.139C157.501,192.865,162.845,195.175,162.076,197.003z"/>
				<g>
					<circle fill="#3D312A" cx="134.943" cy="161.503" r="3.321"/>
					<path fill="#715239" d="M145.099,146.825c-17.133,1.154-19.443,5.679-19.443,5.679s-0.481,2.119,1.925,2.406
						c5.294-4.523,16.268-3.85,16.268-3.85S145.772,149.423,145.099,146.825z"/>
					<circle fill="#FFFFFF" cx="135.906" cy="160.925" r="1.106"/>
					<circle fill="#3D312A" cx="170.307" cy="161.503" r="3.321"/>
					<path fill="#715239" d="M160.152,146.825c17.133,1.154,19.443,5.679,19.443,5.679s0.482,2.119-1.924,2.406
						c-5.295-4.523-16.268-3.85-16.268-3.85S159.478,149.423,160.152,146.825z"/>
					<circle fill="#FFFFFF" cx="171.265" cy="160.925" r="1.107"/>
				</g>
				<path fill="#E5B580" d="M96.072,150.488c0,0,2.073-2.734,2.546-3.959c-0.095-5.092,2.45-12.823,2.45-12.823
					s1.791-3.866,2.546-4.243c2.546-3.3,10.844-7.354,10.844-7.354s13.766-2.17,15.744-0.66c1.98,1.509,0.943,4.432-0.471,4.525
					s-9.24,0.283-10.561,0.283c-2.357,0.188-5.186,5.656-5.563,6.693s0.377,9.24-0.471,10.938
					c-2.357,3.111-8.297,11.125-8.297,11.125L96.072,150.488z"/>
				<path fill="#E5B580" d="M204.462,152.605c0,0-1.621-3.025-1.895-4.311c0.893-5.014-0.41-13.048-0.41-13.048
					s-1.164-4.099-1.85-4.589c-1.998-3.658-9.557-8.963-9.557-8.963s-13.256-4.299-15.447-3.119
					c-2.193,1.179-1.625,4.229-0.244,4.543c1.383,0.314,9.082,1.728,10.385,1.936c2.299,0.555,4.236,6.398,4.445,7.482
					c0.211,1.083-1.82,9.066-1.248,10.877c1.84,3.441,6.451,12.287,6.451,12.287L204.462,152.605z"/>
				<path fill="#8DC3C9" d="M210.279,148.416l-16.051,7.773c16.803,46.143-15.799,67.959-15.799,67.959
					c-10.35-2.206-52.198-2.018-55.124,0c0,0-32.602-21.816-15.799-67.959l-16.05-7.773c0,0-24.825,54.668,25.077,94.289
					l2.508,44.888h63.651l2.508-44.888C235.103,203.083,210.279,148.416,210.279,148.416z"/>
				<path fill="#FFFFFF" d="M134.72,222.859c10.654-1.064,32.999,0.038,32.999,0.038l-12.86,10.61l-3.655,9.318l-3.837-8.953
					L134.72,222.859z"/>
				<path fill="#7BB2B4" d="M134.72,222.859l12.646,11.014l-10.1,9.854l-10.853-20.328
					C126.414,223.399,131.887,222.917,134.72,222.859z"/>
				<polygon fill="#7BB2B4" points="167.718,222.897 155.022,233.417 164.816,243.664 175.667,223.335 				"/>
				<path fill="#D6803B" d="M131.055,285.195c0.209-0.188,0.329-0.485,0.329-0.963v-60.375c0-1.561-1.267-1.223-2.828-1.223
					c-1.563,0-2.828-0.338-2.828,1.223v60.375c0,0.478,0.12,0.776,0.329,0.963c-1.457,0.683-2.468,2.157-2.468,3.873
					c0,2.363,1.916,4.279,4.28,4.279h1.374c2.363,0,4.278-1.916,4.278-4.279C133.521,287.352,132.511,285.877,131.055,285.195z"/>
				<path fill="#D6803B" d="M175.943,285.195c0.209-0.188,0.328-0.485,0.328-0.963v-60.375c0-1.561-1.268-1.223-2.828-1.223
					s-2.828-0.338-2.828,1.223v60.375c0,0.478,0.119,0.776,0.328,0.963c-1.455,0.683-2.467,2.157-2.467,3.873
					c0,2.363,1.916,4.279,4.281,4.279h1.373c2.363,0,4.279-1.916,4.279-4.279C178.41,287.352,177.398,285.877,175.943,285.195z"/>
				<path fill="#733B88" d="M162.529,219.439l-7.606,4.271c-0.666-1.44-2.119-2.442-3.812-2.442s-3.146,1.002-3.812,2.442
					l-7.607-4.271l0.365,12.059l7.169-4.431c0.628,1.527,2.13,2.604,3.885,2.604c1.754,0,3.256-1.076,3.884-2.604l7.168,4.431
					L162.529,219.439z"/>
			</g>
		</g>
	</g>
	<g>
		<path fill="#8DC3C9" d="M59.194,72.156c0,14.656-11.883,26.537-26.541,26.537c-14.656,0-26.539-11.881-26.539-26.537
			c0-14.657,11.883-26.54,26.539-26.54C47.312,45.616,59.194,57.499,59.194,72.156"/>
		<g opacity="0.3">
			<g>
				<defs>
					<rect id="SVGID_3_" x="8.601" y="83.194" width="48.195" height="15.499"/>
				</defs>
				<clipPath id="SVGID_4_">
					<use xlink:href="#SVGID_3_"  overflow="visible"/>
				</clipPath>
			</g>
		</g>
		<path fill="#FFFFFF" d="M54.799,72.156c0,12.229-9.915,22.145-22.146,22.145s-22.145-9.915-22.145-22.145
			c0-12.231,9.914-22.146,22.145-22.146S54.799,59.924,54.799,72.156"/>
		<g>
			<g>
				<defs>
					<rect id="SVGID_5_" x="13.276" y="50.01" width="39.357" height="12.585"/>
				</defs>
				<clipPath id="SVGID_6_">
					<use xlink:href="#SVGID_5_"  overflow="visible"/>
				</clipPath>
			</g>
		</g>
		<g>
			<path fill="#4F4F4F" d="M31.099,53.645h-0.012l-0.724,0.39l-0.107-0.428l0.907-0.485h0.479v4.153h-0.543V53.645z"/>
			<path fill="#4F4F4F" d="M33.157,57.275v-0.346l0.439-0.426c1.063-1.012,1.548-1.547,1.548-2.174c0-0.422-0.198-0.813-0.819-0.813
				c-0.377,0-0.689,0.192-0.882,0.352l-0.179-0.396c0.281-0.237,0.697-0.421,1.17-0.421c0.895,0,1.271,0.613,1.271,1.207
				c0,0.768-0.556,1.387-1.432,2.23l-0.326,0.307v0.013h1.86v0.466H33.157z"/>
		</g>
		<g>
			<path fill="#4F4F4F" d="M33.367,88.039c-0.114-0.006-0.262,0.007-0.422,0.032c-0.889,0.14-1.349,0.779-1.444,1.47h0.014
				c0.197-0.27,0.549-0.486,1.01-0.486c0.734,0,1.252,0.537,1.252,1.343c0,0.768-0.518,1.47-1.387,1.47
				c-0.882,0-1.463-0.689-1.463-1.77c0-0.818,0.287-1.465,0.701-1.873c0.347-0.339,0.807-0.549,1.33-0.614
				c0.166-0.024,0.307-0.03,0.409-0.03V88.039z M33.207,90.435c0-0.594-0.339-0.952-0.856-0.952c-0.338,0-0.658,0.204-0.811,0.511
				c-0.032,0.064-0.059,0.141-0.059,0.244c0.008,0.683,0.326,1.195,0.92,1.195C32.882,91.433,33.207,91.031,33.207,90.435z"/>
		</g>
		<g>
			<path fill="#4F4F4F" d="M48.472,73.9c0.16,0.096,0.523,0.256,0.92,0.256c0.716,0,0.945-0.453,0.939-0.806
				c-0.006-0.581-0.529-0.831-1.072-0.831h-0.314v-0.422h0.314c0.408,0,0.926-0.209,0.926-0.702c0-0.333-0.211-0.626-0.729-0.626
				c-0.332,0-0.652,0.146-0.832,0.274l-0.152-0.408c0.224-0.161,0.646-0.321,1.093-0.321c0.818,0,1.188,0.486,1.188,0.992
				c0,0.434-0.262,0.799-0.768,0.983v0.013c0.512,0.097,0.922,0.48,0.928,1.062c0,0.665-0.524,1.246-1.515,1.246
				c-0.466,0-0.876-0.147-1.08-0.282L48.472,73.9z"/>
		</g>
		<g>
			<path fill="#4F4F4F" d="M14.064,74.142c0.122,0.014,0.262,0,0.454-0.018c0.326-0.046,0.633-0.172,0.869-0.403
				c0.275-0.249,0.473-0.613,0.55-1.099h-0.02c-0.229,0.28-0.562,0.439-0.983,0.439c-0.742,0-1.222-0.561-1.222-1.271
				c0-0.785,0.569-1.477,1.419-1.477s1.373,0.684,1.373,1.758c0,0.908-0.306,1.547-0.715,1.943c-0.319,0.313-0.76,0.505-1.208,0.557
				c-0.204,0.032-0.384,0.038-0.518,0.032V74.142z M14.269,71.761c0,0.516,0.313,0.88,0.799,0.88c0.379,0,0.673-0.186,0.818-0.435
				c0.032-0.057,0.052-0.115,0.052-0.211c0-0.709-0.263-1.252-0.856-1.252C14.608,70.744,14.269,71.166,14.269,71.761z"/>
		</g>
		<g>
			<path fill="#4F4F4F" d="M46.433,65.748v-0.345l0.441-0.429c1.061-1.01,1.547-1.547,1.547-2.173c0-0.421-0.197-0.812-0.818-0.812
				c-0.377,0-0.69,0.191-0.882,0.352l-0.179-0.396c0.281-0.236,0.697-0.422,1.17-0.422c0.895,0,1.271,0.614,1.271,1.209
				c0,0.766-0.556,1.387-1.431,2.229l-0.326,0.306v0.014h1.859v0.467H46.433z"/>
		</g>
		<g>
			<path fill="#4F4F4F" d="M15.656,62.117h-0.013l-0.723,0.391l-0.107-0.428l0.906-0.486h0.479v4.154h-0.543V62.117z"/>
			<path fill="#4F4F4F" d="M20.481,63.625c0,1.413-0.531,2.192-1.445,2.192c-0.812,0-1.367-0.761-1.381-2.135
				c0-1.4,0.607-2.16,1.451-2.16C19.976,61.523,20.481,62.302,20.481,63.625z M18.225,63.689c0,1.081,0.333,1.694,0.845,1.694
				c0.568,0,0.842-0.671,0.842-1.731c0-1.023-0.255-1.693-0.842-1.693C18.583,61.958,18.225,62.558,18.225,63.689z"/>
		</g>
		<g>
			<path fill="#4F4F4F" d="M42.103,56.015h-0.014l-0.723,0.391l-0.108-0.429l0.907-0.485h0.48v4.154h-0.543V56.015z"/>
		</g>
		<g>
			<path fill="#4F4F4F" d="M22.729,56.015h-0.013l-0.723,0.391l-0.107-0.429l0.906-0.485h0.48v4.154h-0.544V56.015z"/>
			<path fill="#4F4F4F" d="M26.007,56.015h-0.012l-0.723,0.391l-0.109-0.429l0.908-0.485h0.479v4.154h-0.544V56.015z"/>
		</g>
		<g>
			<path fill="#4F4F4F" d="M42.646,85.996H41.06L40.9,87.062c0.096-0.014,0.186-0.02,0.339-0.02c0.326,0,0.64,0.064,0.895,0.224
				c0.326,0.18,0.596,0.543,0.596,1.061c0,0.812-0.646,1.419-1.548,1.419c-0.454,0-0.83-0.127-1.036-0.255l0.142-0.429
				c0.173,0.104,0.511,0.23,0.895,0.23c0.524,0,0.984-0.346,0.978-0.902c0-0.537-0.363-0.914-1.188-0.914
				c-0.244,0-0.43,0.02-0.583,0.04l0.269-1.994h1.988V85.996z"/>
		</g>
		<g>
			<path fill="#4F4F4F" d="M24.807,85.522v0.371l-1.809,3.782h-0.583L24.218,86v-0.012h-2.032v-0.467H24.807z"/>
		</g>
		<g>
			<path fill="#4F4F4F" d="M48.069,83.146v-1.139h-1.93v-0.363l1.854-2.652H48.6v2.582h0.583v0.434H48.6v1.139H48.069z
				 M48.069,81.574v-1.388c0-0.218,0.007-0.434,0.02-0.651h-0.02c-0.127,0.242-0.23,0.422-0.345,0.613l-1.017,1.412v0.014H48.069z"
				/>
		</g>
		<g>
			<path fill="#4F4F4F" d="M16.411,80.959c-0.468-0.218-0.666-0.575-0.666-0.933c0-0.658,0.557-1.105,1.291-1.105
				c0.805,0,1.215,0.498,1.215,1.021c0,0.352-0.179,0.736-0.691,0.973v0.02c0.519,0.203,0.838,0.574,0.838,1.072
				c0,0.729-0.619,1.209-1.412,1.209c-0.869,0-1.393-0.512-1.393-1.119c0-0.523,0.313-0.9,0.824-1.118L16.411,80.959z
				 M17.829,82.066c0-0.498-0.352-0.748-0.914-0.907c-0.486,0.14-0.748,0.466-0.748,0.862c-0.018,0.416,0.3,0.787,0.831,0.787
				C17.503,82.808,17.829,82.495,17.829,82.066z M16.282,79.989c-0.007,0.415,0.314,0.639,0.793,0.767
				c0.357-0.122,0.632-0.377,0.632-0.754c0-0.332-0.198-0.678-0.702-0.678C16.538,79.324,16.282,79.631,16.282,79.989z"/>
		</g>
		<polygon fill="#8DC3C9" points="32.653,55.328 31.496,56.967 31.745,72.156 33.563,72.156 33.81,56.967 		"/>
		<polygon fill="#8DC3C9" points="42.046,66.732 40.047,66.549 32.2,71.369 33.107,72.942 41.206,68.555 		"/>
		<path fill="#4F4F4F" d="M34.446,72.156c0,0.988-0.803,1.791-1.793,1.791s-1.792-0.803-1.792-1.791c0-0.99,0.802-1.793,1.792-1.793
			S34.446,71.166,34.446,72.156"/>
	</g>
	<g>
		<g>
			<path fill="#D6803B" d="M168.781,12.41v16.012c0,0.844,0.684,1.527,1.527,1.527h6.088c0.844,0,1.527-0.684,1.527-1.527V12.41
				c0-0.843-0.684-1.525-1.527-1.525h-6.088C169.464,10.884,168.781,11.567,168.781,12.41z"/>
			<path fill="#E5B580" d="M132.108,6.56c-3.098,0.375-2.018,6.007,0.938,5.49c3.051-0.281,6.476-1.313,9.01,0.986
				c-3.66,0-7.977-1.924-11.121,0.797c-2.018,1.736-4.318,3.191-6.1,5.115c-0.64,1.438,0.277,3.161,1.611,4.016
				c1.016,0.652,2.273,0.799,3.268-0.073c1.291-0.985,2.533-2.019,3.777-3.03c0.171-0.139,0.342-0.275,0.514-0.413
				c0.306-0.245,0.611-0.492,0.918-0.733c0.445,0.059,0.885,0.118,1.324,0.176c0.242,0.031,0.484,0.063,0.727,0.096
				c0.705,0.088,1.409,0.173,2.127,0.244c-2.535,1.221-6.008,1.126-7.837,3.426c-0.074,0.729-0.114,1.457-0.133,2.186
				c-0.001,0.094-0.005,0.188-0.007,0.28c-0.035,2.011,0.085,4.021,0.125,6.03c0.009,0.406,0.015,0.813,0.015,1.217
				c-0.235,3.614,6.194,3.332,6.287,0c0.022-0.907,0.003-1.815-0.02-2.729c-0.024-1.021-0.052-2.049-0.026-3.09
				c1.033-0.328,2.064-0.656,3.096-0.986c-1.044,1.213-3.164,2.313-3.021,4.063c0.017,0.215,0.066,0.441,0.16,0.678
				c1.643,2.816,3.801,5.35,5.725,8.025c0.84,1.27,2.27,1.199,3.408,0.5c1.217-0.749,2.1-2.219,1.564-3.551
				c-0.938-1.736-2.157-3.285-3.236-4.928c2.299-2.018,4.785-3.895,7.648-4.879c0.545-0.048,1.044,0.03,1.492,0.201
				c2.213,0.846,3.127,4.01,1.605,6.039c-0.582,2.291-2.995,2.103-4.772,2.84c-0.516,0.216-0.979,0.508-1.328,0.961
				c-0.985,1.524-0.296,3.466,1.037,4.349c0.76,0.503,1.729,0.663,2.718,0.203c0.562-0.037,1.102-0.118,1.624-0.237
				c1.003-0.225,1.935-0.593,2.81-1.067c3.301-1.795,5.758-5.115,8-8.128c0.104-0.178,0.203-0.36,0.301-0.545
				c0.082-0.086,0.162-0.171,0.244-0.256l0.637-0.295c0.346-0.191,0.57-0.543,0.609-0.932c0.002-0.039,0.006-0.078,0.006-0.117
				c0-0.488,0-1.263,0-2.221c0-0.156,0-0.316,0-0.48c0-1.664,0-3.777,0-5.885c0-0.042,0-0.083,0-0.123c0-0.76,0-1.516,0-2.247
				c0-1.04,0-2.034,0-2.915c0-1.286-0.676-2.414-1.691-3.049c-0.725-0.244-1.484-0.418-2.254-0.545
				c-1.182-0.195-2.387-0.283-3.527-0.348c-0.316,0-0.635-0.004-0.953-0.01c-5.084-1.273-10.721-0.797-15.52-3.354
				C140.319,4.965,136.05,6.279,132.108,6.56z"/>
		</g>
		<g>
			<polygon fill="#979796" points="143.411,44.036 141.275,49.343 142.519,51.419 140.185,52.055 141.429,54.131 139.094,54.767 
				140.337,56.843 138.003,57.48 138.003,57.48 139.986,60.232 143.324,59.622 148.733,46.177 			"/>
			<path fill="#8DC3C9" d="M154.087,37.048l-4.107-1.652l0,0l-4.109-1.652c-1.547-0.623-3.306,0.127-3.928,1.674l-2.254,5.602
				c-0.622,1.548,0.128,3.306,1.676,3.928l8.215,3.307c0.193,0.076,0.391,0.133,0.588,0.169c0.592,0.109,1.189,0.034,1.723-0.193
				c0.712-0.302,1.307-0.876,1.618-1.65l2.253-5.602C156.384,39.431,155.635,37.67,154.087,37.048z M147.403,38.158
				c0.279-0.697,1.072-1.033,1.768-0.754c0.696,0.281,1.033,1.07,0.752,1.768c-0.277,0.695-1.069,1.033-1.766,0.754
				C147.46,39.644,147.124,38.852,147.403,38.158z"/>
		</g>
		<path fill="#E5B580" d="M158.871,37.988c-0.17-1.402-1.883-3.336-3.781-4.873c-1.019,0.852-2.632,0.904-3.916,1.438
			c-0.516,0.216-0.979,0.508-1.328,0.961c-0.985,1.524-0.296,3.466,1.037,4.349c0.76,0.503,1.729,0.663,2.718,0.203
			c0.562-0.037,1.102-0.118,1.624-0.237c1.003-0.225,1.935-0.593,2.81-1.067c0.303-0.165,0.592-0.354,0.881-0.544
			C158.904,38.139,158.88,38.066,158.871,37.988z"/>
	</g>
	<g id="sUHZb7_1_">
		<g>
			<path fill-rule="evenodd" clip-rule="evenodd" fill="#8DC3C9" d="M301.025,57.308c-0.67,0-1.342,0-2.012,0
				c-0.234-1.227-0.561-2.465-0.871-3.686c-0.738-2.908-1.303-5.955-4.623-6.299c-2.426-0.252-5.385,0-8.176,0
				c-2.85,0-5.709-0.219-8.109,0c-3.615,0.327-4.055,3.617-4.758,6.364c-0.475-0.149-1.225-0.026-1.811-0.065
				c0.766-1.986,0.895-4.324,1.811-5.696c0.641-0.96,1.859-1.896,3.217-2.078c0.588-0.079,1.785-0.001,2.346,0
				c4.205,0.005,8.375,0,12.666,0c2.621,0,5.098-0.192,6.5,1.006c1.375,1.173,1.662,3.04,2.211,4.958
				C299.968,53.74,300.511,55.527,301.025,57.308z"/>
			<path fill-rule="evenodd" clip-rule="evenodd" fill="#733B88" d="M291.576,66.757c-0.648,0-1.297,0-1.943,0
				c-0.711-2.203-0.975-4.73-1.742-6.902c-0.486-1.373-1.826-2.873-3.619-3.083c-2.471-0.29-5.51,0-8.377,0
				c-2.93,0-5.842-0.269-8.311,0c-3.48,0.378-3.766,3.731-4.557,6.3c-0.537-0.045-1.25,0.088-1.674-0.068
				c-0.018-0.651,0.35-1.443,0.602-2.345c0.533-1.899,0.881-3.54,2.279-4.558c0.602-0.438,1.545-0.791,2.479-0.871
				c2.795-0.238,6.004,0,9.182,0c3.219,0,6.289-0.203,9.113,0c1.854,0.135,3.547,1.449,4.156,2.881
				c0.271,0.644,0.408,1.488,0.602,2.213c0.395,1.465,0.783,2.921,1.207,4.423C291.166,65.425,291.351,66.105,291.576,66.757z"/>
			<path fill-rule="evenodd" clip-rule="evenodd" fill="#8DC3C9" d="M296.333,71.449c0.088-1.764-0.461-2.801-1.34-3.619
				c-0.598-0.557-1.545-0.841-1.943-1.676c-0.252-0.523-0.307-1.233-0.469-1.809c-0.496-1.756-1.01-3.377-1.475-5.229
				c-0.047-0.054-0.105-0.183,0-0.201c2.863,0,5.438,0,8.309,0c0.9,0,1.938-0.17,2.748,0c0.943,0.105,1.568,0.927,1.811,1.543
				c0.453,1.159,0.199,2.849,0.199,4.757c0,2.984,0.383,5.565-1.742,6.165c-0.98,0.277-2.123,0.068-3.016,0.068
				C298.474,71.449,297.558,71.449,296.333,71.449z"/>
			<path fill-rule="evenodd" clip-rule="evenodd" fill="#D6803B" d="M282.126,76.207c-0.625,0-1.252,0-1.877,0
				c-1.445-3.805-0.932-9.181-5.16-9.986c-0.99-0.188-12.836-0.311-16.486-0.066c-4.904,0.329-4.5,6.032-5.896,10.053
				c-0.646,0-1.295,0-1.943,0c0.605-2.07,1.303-4.609,1.943-6.836c0.219-0.764,0.354-1.611,0.67-2.212
				c0.627-1.188,2.17-2.328,3.754-2.479c2.908-0.277,6.184,0,9.314,0c3.219,0,6.402-0.232,9.314,0
				c1.49,0.119,2.875,1.061,3.553,2.078c0.805,1.209,1.014,3.053,1.475,4.691C281.255,73.114,281.814,74.688,282.126,76.207z"/>
			<path fill-rule="evenodd" clip-rule="evenodd" fill="#733B88" d="M281.591,68.432c3.357-0.165,10.99-0.067,10.99-0.067
				c2.506,0.188,2.143,3.139,2.143,6.232c0,2.988,0.402,5.637-1.742,6.233c-1.799,0.5-4.041-0.176-6.098,0
				c0.102-2.604-1.121-3.882-3.016-4.49C283.091,73.722,282.419,70.999,281.591,68.432z M288.425,73.995
				c0.08,1.483,1.42,2.388,2.748,2.212c2.912-0.387,2.424-5.219-0.738-4.691C289.212,71.718,288.345,72.513,288.425,73.995z"/>
			<path fill-rule="evenodd" clip-rule="evenodd" fill="#FFFFFF" d="M290.435,71.515c3.162-0.527,3.65,4.305,0.738,4.691
				c-1.328,0.176-2.668-0.729-2.748-2.212C288.345,72.513,289.212,71.718,290.435,71.515z"/>
			<path fill-rule="evenodd" clip-rule="evenodd" fill="#8DC3C9" d="M296.402,73.056c2.055,0.043,4.285-0.088,6.23,0.067
				c-0.082,2.323,0.514,5.472-1.475,6.099c-1.141,0.359-3.373,0.196-4.088-0.402c-1.113-0.936-0.643-3.422-0.736-5.563
				C296.328,73.163,296.322,73.068,296.402,73.056z"/>
			<path fill-rule="evenodd" clip-rule="evenodd" d="M258.001,77.814c-0.166,0.172-0.424,0.233-0.604,0.066
				C257.441,77.64,257.72,77.9,258.001,77.814z"/>
			<path fill-rule="evenodd" clip-rule="evenodd" fill="#D6803B" d="M280.451,77.814c2.207,0,3.979-0.229,4.691,1.408
				c0.461,1.061,0.201,3.017,0.201,4.758c0,3.028,0.396,5.863-1.943,6.299c-1.176,0.219-2.824,0-4.289,0c-8.365,0-17.008,0-25.398,0
				c-2.711,0-5.285,0.477-5.965-1.608c-0.275-0.845-0.135-2.576-0.135-4.087c0-3.025-0.516-6.307,1.877-6.77
				c1.141-0.22,2.488,0,3.686,0C254.396,77.814,273.234,77.814,280.451,77.814z M249.156,83.175
				c-0.047,1.541,1.168,2.51,2.479,2.479c3.26-0.074,2.824-5.383-0.604-4.69C249.935,81.185,249.191,81.943,249.156,83.175z
				 M279.111,82.437c-0.506,1.633,0.588,3.217,2.279,3.217c1.547,0,2.482-1.152,2.344-3.015
				C283.236,80.39,279.738,80.415,279.111,82.437z"/>
			<path fill-rule="evenodd" clip-rule="evenodd" fill="#FFFFFF" d="M251.031,80.963c3.428-0.692,3.863,4.616,0.604,4.69
				c-1.311,0.031-2.525-0.938-2.479-2.479C249.191,81.943,249.935,81.185,251.031,80.963z"/>
			<path fill-rule="evenodd" clip-rule="evenodd" fill="#FFFFFF" d="M283.734,82.639c0.139,1.862-0.797,3.015-2.344,3.015
				c-1.691,0-2.785-1.584-2.279-3.217C279.738,80.415,283.236,80.39,283.734,82.639z"/>
			<path fill-rule="evenodd" clip-rule="evenodd" fill="#D6803B" d="M249.289,91.887c2.057,0,4.111,0,6.166,0
				c-0.121,2.594,0.627,5.765-1.607,6.232c-0.709,0.147-2.111,0.161-2.949,0c-2.205-0.424-1.711-3.405-1.742-6.032
				C249.152,91.974,249.205,91.915,249.289,91.887z"/>
			<path fill-rule="evenodd" clip-rule="evenodd" fill="#D6803B" d="M277.66,91.887c2.055,0,4.111,0,6.164,0
				c-0.119,2.594,0.629,5.765-1.607,6.232c-0.707,0.147-2.111,0.161-2.947,0c-2.203-0.424-1.711-3.405-1.744-6.032
				C277.523,91.974,277.576,91.915,277.66,91.887z"/>
			<path fill-rule="evenodd" clip-rule="evenodd" fill="#733B88" d="M286.927,82.506c2.055,0,4.109,0,6.164,0
				c-0.121,2.595,0.627,5.765-1.607,6.233c-0.709,0.148-2.111,0.16-2.949,0c-2.203-0.424-1.711-3.406-1.742-6.033
				C286.789,82.593,286.841,82.535,286.927,82.506z"/>
			<circle fill-rule="evenodd" clip-rule="evenodd" fill="#FFFFFF" cx="300.235" cy="64.453" r="2.38"/>
		</g>
	</g>
	<path fill="#733B88" d="M40.704,122.785c0,0.725-0.586,1.316-1.316,1.316c-0.725,0-1.316-0.592-1.316-1.316
		c0-0.729,0.592-1.316,1.316-1.316C40.118,121.468,40.704,122.055,40.704,122.785 M46.628,122.785c0,0.725-0.586,1.316-1.316,1.316
		c-0.725,0-1.316-0.592-1.316-1.316c0-0.729,0.592-1.316,1.316-1.316C46.042,121.468,46.628,122.055,46.628,122.785 M52.552,122.785
		c0,0.725-0.586,1.316-1.316,1.316c-0.725,0-1.316-0.592-1.316-1.316c0-0.729,0.592-1.316,1.316-1.316
		C51.966,121.468,52.552,122.055,52.552,122.785 M58.475,122.785c0,0.725-0.585,1.316-1.316,1.316c-0.724,0-1.315-0.592-1.315-1.316
		c0-0.729,0.592-1.316,1.315-1.316C57.89,121.468,58.475,122.055,58.475,122.785 M64.399,122.785c0,0.725-0.587,1.316-1.317,1.316
		c-0.724,0-1.315-0.592-1.315-1.316c0-0.729,0.592-1.316,1.315-1.316C63.813,121.468,64.399,122.055,64.399,122.785 M70.322,122.785
		c0,0.725-0.587,1.316-1.317,1.316c-0.724,0-1.315-0.592-1.315-1.316c0-0.729,0.592-1.316,1.315-1.316
		C69.735,121.468,70.322,122.055,70.322,122.785 M35.069,122.496c0,0.725-0.584,1.316-1.316,1.316c-0.723,0-1.316-0.592-1.316-1.316
		c0-0.73,0.594-1.316,1.316-1.316C34.485,121.179,35.069,121.765,35.069,122.496 M35.069,116.572c0,0.73-0.584,1.316-1.316,1.316
		c-0.723,0-1.316-0.586-1.316-1.316c0-0.724,0.594-1.316,1.316-1.316C34.485,115.255,35.069,115.848,35.069,116.572 M35.069,110.649
		c0,0.724-0.584,1.315-1.316,1.315c-0.723,0-1.316-0.592-1.316-1.315s0.594-1.317,1.316-1.317
		C34.485,109.332,35.069,109.925,35.069,110.649 M35.069,104.725c0,0.724-0.584,1.315-1.316,1.315c-0.723,0-1.316-0.592-1.316-1.315
		c0-0.73,0.594-1.316,1.316-1.316C34.485,103.409,35.069,103.995,35.069,104.725"/>
	<path fill="#733B88" d="M260.312,124.72c0-0.73,0.588-1.315,1.316-1.315c0.725,0,1.316,0.585,1.316,1.315
		c0,0.725-0.592,1.316-1.316,1.316C260.9,126.037,260.312,125.445,260.312,124.72 M254.39,124.72c0-0.73,0.586-1.315,1.316-1.315
		c0.725,0,1.316,0.585,1.316,1.315c0,0.725-0.592,1.316-1.316,1.316C254.976,126.037,254.39,125.445,254.39,124.72 M248.466,124.72
		c0-0.73,0.586-1.315,1.316-1.315c0.725,0,1.316,0.585,1.316,1.315c0,0.725-0.592,1.316-1.316,1.316
		C249.052,126.037,248.466,125.445,248.466,124.72 M242.542,124.72c0-0.73,0.586-1.315,1.316-1.315c0.725,0,1.316,0.585,1.316,1.315
		c0,0.725-0.592,1.316-1.316,1.316C243.128,126.037,242.542,125.445,242.542,124.72 M236.619,124.72c0-0.73,0.586-1.315,1.316-1.315
		c0.725,0,1.316,0.585,1.316,1.315c0,0.725-0.592,1.316-1.316,1.316C237.205,126.037,236.619,125.445,236.619,124.72
		 M230.695,124.72c0-0.73,0.586-1.315,1.316-1.315c0.725,0,1.316,0.585,1.316,1.315c0,0.725-0.592,1.316-1.316,1.316
		C231.281,126.037,230.695,125.445,230.695,124.72 M265.947,124.431c0-0.73,0.586-1.316,1.316-1.316
		c0.725,0,1.316,0.586,1.316,1.316c0,0.725-0.592,1.316-1.316,1.316C266.533,125.748,265.947,125.156,265.947,124.431
		 M265.947,118.507c0-0.724,0.586-1.316,1.316-1.316c0.725,0,1.316,0.593,1.316,1.316c0,0.73-0.592,1.316-1.316,1.316
		C266.533,119.824,265.947,119.238,265.947,118.507 M265.947,112.584c0-0.725,0.586-1.316,1.316-1.316
		c0.725,0,1.316,0.592,1.316,1.316c0,0.724-0.592,1.316-1.316,1.316C266.533,113.901,265.947,113.308,265.947,112.584
		 M265.947,106.66c0-0.729,0.586-1.314,1.316-1.314c0.725,0,1.316,0.585,1.316,1.314c0,0.725-0.592,1.317-1.316,1.317
		C266.533,107.977,265.947,107.384,265.947,106.66"/>
	<path fill="#733B88" d="M150.964,91.799c0-0.778,0.632-1.402,1.402-1.402c0.779,0,1.402,0.624,1.402,1.402
		c0,0.771-0.623,1.402-1.402,1.402C151.596,93.202,150.964,92.571,150.964,91.799 M150.964,85.488c0-0.778,0.632-1.402,1.402-1.402
		c0.779,0,1.402,0.624,1.402,1.402s-0.623,1.402-1.402,1.402C151.596,86.89,150.964,86.266,150.964,85.488 M150.964,79.177
		c0-0.771,0.632-1.402,1.402-1.402c0.779,0,1.402,0.631,1.402,1.402s-0.623,1.402-1.402,1.402
		C151.596,80.58,150.964,79.949,150.964,79.177 M150.964,72.866c0-0.778,0.632-1.403,1.402-1.403c0.779,0,1.402,0.625,1.402,1.403
		c0,0.771-0.623,1.401-1.402,1.401C151.596,74.267,150.964,73.637,150.964,72.866 M150.964,66.554c0-0.771,0.632-1.402,1.402-1.402
		c0.779,0,1.402,0.631,1.402,1.402c0,0.779-0.623,1.402-1.402,1.402C151.596,67.957,150.964,67.333,150.964,66.554 M150.964,60.244
		c0-0.771,0.632-1.403,1.402-1.403c0.779,0,1.402,0.632,1.402,1.403c0,0.771-0.623,1.402-1.402,1.402
		C151.596,61.646,150.964,61.014,150.964,60.244 M150.964,53.932c0-0.778,0.632-1.403,1.402-1.403c0.779,0,1.402,0.625,1.402,1.403
		c0,0.771-0.623,1.401-1.402,1.401C151.596,55.333,150.964,54.703,150.964,53.932"/>
</g>
<g>
</g>
<g>
</g>
<g>
</g>
<g>
</g>
<g>
</g>
<g>
</g>
</svg>
