<?xml version="1.0" encoding="utf-8"?>
<!-- Generator: Adobe Illustrator 16.0.0, SVG Export Plug-In . SVG Version: 6.00 Build 0)  -->
<!DOCTYPE svg PUBLIC "-//W3C//DTD SVG 1.1//EN" "http://www.w3.org/Graphics/SVG/1.1/DTD/svg11.dtd">
<svg version="1.1" id="Capa_1" xmlns="http://www.w3.org/2000/svg" xmlns:xlink="http://www.w3.org/1999/xlink" x="0px" y="0px"
	 width="216.216px" height="216.217px" viewBox="0 0 216.216 216.217" enable-background="new 0 0 216.216 216.217"
	 xml:space="preserve">
<g>
	<g>
		<circle fill="#8DC3C9" cx="108.475" cy="108.318" r="102.565"/>
	</g>
	<g>
		<defs>
			<circle id="SVGID_1_" cx="108.475" cy="108.318" r="102.565"/>
		</defs>
		<clipPath id="SVGID_2_">
			<use xlink:href="#SVGID_1_"  overflow="visible"/>
		</clipPath>
		<g clip-path="url(#SVGID_2_)">
			<path fill-rule="evenodd" clip-rule="evenodd" fill="#733B88" d="M-92.091,238.648c16.301,0,32.592,0,48.889,0
				c-0.959,20.566,4.975,45.71-12.754,49.42c-5.613,1.176-16.738,1.277-23.385,0c-17.475-3.356-13.563-26.997-13.816-47.826
				C-93.179,239.334-92.761,238.868-92.091,238.648z"/>
			<path fill-rule="evenodd" clip-rule="evenodd" fill="#733B88" d="M132.872,238.648c16.301,0,32.592,0,48.883,0
				c-0.955,20.566,4.982,45.71-12.746,49.42c-5.621,1.176-16.736,1.277-23.377,0c-17.473-3.356-13.574-26.997-13.824-47.826
				C131.792,239.334,132.198,238.868,132.872,238.648z"/>
		</g>
		<g clip-path="url(#SVGID_2_)">
			<g>
				<g>
					<path fill="#E5B580" d="M145.657,88.094c0,0-0.484-1.994,1.186-3.521c0,0,2.883-1.936,3.779-3.909
						c0.898-1.973,1.824-10.423,1.824-10.423s-0.486-1.994-2.582-0.732c-0.354,0.338-0.609,0.073-0.609,0.073
						c0.221-2.673-2.535-2.979-2.996-1.604c-0.693,0.333-0.852-0.362-0.852-0.362c0.287-1.723-3.074-2.041-2.932-0.395
						c-0.527,0.422-1.383-0.111-1.383-0.111c-0.23-1.646-2.988-1.952-3.197,0.291c-0.615,0.51-1.041,0.156-1.041,0.156
						s-2.219-1.594-2.951,0.813c-0.738,2.406-2.455,7.129-1.561,10.426c0.318,1.646,2.211,2.023,2.793,3.33
						c0.582,1.306,0.26,5.016,0.26,5.016L145.657,88.094z"/>
					<path fill="#8DC3C9" d="M69.335,132.354c0.156-1.429,37.393-0.904,38.713,0.661c0,0,20.057-12.505,24.822-46.146l13.93,1.401
						c0,0-5.393,43.164-34.219,57.859l-2.303,31.493l-50.07,1.76l-4.617-34.634C55.591,127.434,69.335,132.354,69.335,132.354z"/>
				</g>
			</g>
			
				<rect x="82.69" y="128.585" transform="matrix(-0.9999 -0.0169 0.0169 -0.9999 175.3103 265.1125)" fill="#E5B580" width="12.166" height="6.466"/>
			<path fill="#FFFFFF" d="M100.319,131.9c-7.398-0.867-22.949-0.367-22.949-0.367l8.816,7.534l2.434,6.526l2.777-6.184
				L100.319,131.9z"/>
			<path fill="#7BB2B4" d="M100.319,131.9l-8.922,7.51l6.904,6.975l7.795-14.01C106.097,132.375,102.29,131.975,100.319,131.9z"/>
			<polygon fill="#7BB2B4" points="77.37,131.533 86.073,139.002 79.14,146.015 71.833,131.746 			"/>
			<path fill="#D6803B" d="M102.13,175.307c-0.139-0.134-0.219-0.343-0.215-0.676l0.719-41.998c0.018-1.086,0.893-0.835,1.98-0.816
				c1.088,0.018,1.971-0.203,1.953,0.885l-0.721,41.998c-0.006,0.331-0.09,0.539-0.238,0.666c1.006,0.492,1.693,1.529,1.67,2.724
				c-0.027,1.644-1.387,2.952-3.027,2.925l-0.957-0.016c-1.645-0.028-2.953-1.384-2.924-3.027
				C100.388,176.776,101.112,175.762,102.13,175.307z"/>
			<path fill="#D6803B" d="M70.903,174.771c-0.143-0.135-0.219-0.343-0.213-0.674l0.719-41.998c0.021-1.086,0.896-0.836,1.977-0.817
				c1.088,0.018,1.975-0.201,1.955,0.885l-0.719,41.999c-0.006,0.331-0.094,0.537-0.24,0.666c1.006,0.492,1.691,1.529,1.668,2.722
				c-0.025,1.645-1.383,2.955-3.025,2.927l-0.955-0.018c-1.648-0.027-2.951-1.383-2.926-3.026
				C69.163,176.242,69.886,175.229,70.903,174.771z"/>
			<path fill="#733B88" d="M81.019,129.189l5.242,3.061c0.477-0.993,1.5-1.675,2.682-1.652c1.174,0.019,2.174,0.732,2.619,1.744
				l5.344-2.881l-0.398,8.385l-4.934-3.168c-0.453,1.055-1.512,1.785-2.734,1.764c-1.221-0.021-2.25-0.786-2.672-1.857l-5.039,2.997
				L81.019,129.189z"/>
			<g>
				<path fill="#E5B580" d="M65.837,88.797l0.791,13.688c-2.936,0.678-2.793-7.645-2.793-7.645S62.062,88.074,65.837,88.797z"/>
				<path fill="#E5B580" d="M113.364,89.61l-1.264,13.651c2.914,0.777,3.057-7.543,3.057-7.543S117.159,89.016,113.364,89.61z"/>
				<path fill="#70543B" d="M90.696,50.619v-0.021c0.039,0.006,0.076,0.011,0.115,0.014c0.043-0.002,0.082-0.006,0.121-0.008v0.02
					c24.025,2.27,24.156,19.418,24.156,19.418l-3.377,39.226c0,0-4.426,21.151-22.139,20.937
					c-17.717-0.215-22.77-21.704-22.77-21.704l-1.717-39.312C65.087,69.188,66.606,52.064,90.696,50.619z"/>
				<path fill="#E5B580" d="M77.222,66.391c4.283,2.296,12.346,2.936,12.869,2.977c0.521-0.021,8.607-0.387,12.965-2.531
					c2.594-0.83,10.281,1.436,7.408,34.298c-2.695,12.634-9.662,9.206-9.662,9.206l-6.412-3.831c0,0-0.963,1.037-2.352,0.511
					c-0.191,0.145-0.627,0.5-2.572,0.506v0.002c-0.01-0.001-0.021-0.002-0.027-0.003c-0.008,0.001-0.02,0.001-0.027,0.002
					l0.002-0.003c-1.947-0.072-2.369-0.441-2.555-0.594c-1.404,0.48-2.332-0.592-2.332-0.592l-6.537,3.61
					c0,0-7.086,3.187-9.344-9.53C66.896,67.479,74.659,65.476,77.222,66.391z"/>
				<path fill="#715239" d="M84.642,78.84c-12.047,0.604-13.723,3.755-13.723,3.755s-0.363,1.481,1.326,1.712
					c3.77-3.113,11.467-2.508,11.467-2.508S85.079,80.674,84.642,78.84z"/>
				<g>
					<path fill="#715239" d="M95.214,79.02c12.02,1.017,13.588,4.223,13.588,4.223s0.311,1.494-1.383,1.666
						c-3.668-3.24-11.381-2.898-11.381-2.898S94.706,80.836,95.214,79.02z"/>
				</g>
				<path fill="#222321" d="M98.397,90.635c0.932,0.617,1.818-1.514,3.707-1.479c1.895,0.03,2.5,2.358,3.518,1.604
					c1.012-0.752-1.66-3.479-3.553-3.51C100.175,87.217,97.47,90.021,98.397,90.635z"/>
				<path fill="#222321" d="M73.624,90.213c0.93,0.616,1.811-1.516,3.707-1.482c1.893,0.033,2.5,2.357,3.512,1.605
					c1.014-0.754-1.658-3.479-3.549-3.51C75.399,86.794,72.692,89.597,73.624,90.213z"/>
			</g>
			<path fill="#E5B580" d="M81.331,113.106c0.611-1.384,3.877,0.64,7.73,0.704c3.848,0.066,7.215-1.77,8.072-0.435
				c0.859,1.337-2.619,7.341-8.066,7.247C83.685,120.529,80.722,114.49,81.331,113.106z"/>
			<g>
				<path fill="#C55042" d="M82.321,114.035c0.529-1.209,3.383,0.559,6.75,0.617c3.361,0.057,6.301-1.547,7.053-0.381
					c0.75,1.168-2.273,5.457-7.029,5.377C84.39,119.566,81.786,115.244,82.321,114.035z"/>
				<g>
					<defs>
						<path id="SVGID_3_" d="M82.321,114.035c0.529-1.209,3.383,0.559,6.75,0.617c3.361,0.057,6.301-1.547,7.053-0.381
							c0.75,1.168-2.273,5.457-7.029,5.377C84.39,119.566,81.786,115.244,82.321,114.035z"/>
					</defs>
					<clipPath id="SVGID_4_">
						<use xlink:href="#SVGID_3_"  overflow="visible"/>
					</clipPath>
					<path clip-path="url(#SVGID_4_)" fill="#FFFFFF" d="M95.839,113.896c0.742,0.419,1.412,0.905,1.412,0.905
						c1.992-0.678-7.947,4.275-15.672-0.473c0,0-0.393-0.887,0.156-1.081C84.376,113.63,94.62,113.67,95.839,113.896z"/>
				</g>
			</g>
		</g>
		<path clip-path="url(#SVGID_2_)" fill="#858584" d="M90.603,123.65c-20.807,0-37.676,16.867-37.676,37.676
			c0,20.807,16.869,37.674,37.676,37.674c20.805,0,37.676-16.867,37.676-37.674C128.278,140.518,111.407,123.65,90.603,123.65z
			 M90.39,193.457c-17.627,0-31.918-14.291-31.918-31.92c0-17.628,14.291-31.918,31.918-31.918s31.918,14.29,31.918,31.918
			C122.308,179.166,108.017,193.457,90.39,193.457z"/>
		<path clip-path="url(#SVGID_2_)" fill="#E5B580" d="M62.103,135.385c-4.559,3.006-9.852,8.521-11.6,12.617
			c1.021,0.851,2.664,2.344,2.664,2.344s1.768,0.596,1.818-1.625c-0.09-0.436,0.238-0.502,0.238-0.502
			c1.945,1.469,3.521-0.498,2.689-1.52c0.082-0.695,0.695-0.479,0.695-0.479c1.182,1.059,3.061-1.363,1.729-2.057
			c-0.068-0.61,0.758-1.008,0.758-1.008c1.375,0.625,2.953-1.342,1.334-2.594c-0.094-0.719,0.383-0.875,0.383-0.875
			s2.307-0.928,0.816-2.66C63.437,136.803,62.103,135.385,62.103,135.385z"/>
		<path clip-path="url(#SVGID_2_)" fill-rule="evenodd" clip-rule="evenodd" fill="#733B88" d="M153.782,147.646
			c16.424,0,29.604-1.709,34.908,10.475c3.438,7.902,1.5,14.648,1.5,27.604c0,22.54,2.947,43.641-14.461,46.879
			c-8.754,1.633-21.031,0-31.92,0c-62.252,0-126.574,0-189.027,0c-20.18,0-39.34,3.543-44.391-11.969
			c-2.047-6.282-0.998-19.17-0.998-30.421c0-22.509-3.844-39.13,13.967-42.567c8.49-1.641,18.52,0,27.43,0
			C-40.132,147.646,100.073,147.646,153.782,147.646z"/>
		<path clip-path="url(#SVGID_2_)" fill-rule="evenodd" clip-rule="evenodd" fill="#FFFFFF" d="M-53.624,171.235
			c-0.338,11.472,8.699,18.679,18.455,18.45c24.262-0.553,21.014-40.063-4.488-34.914
			C-47.813,156.426-53.351,162.059-53.624,171.235z"/>
		<path clip-path="url(#SVGID_2_)" fill-rule="evenodd" clip-rule="evenodd" fill="#FFFFFF" d="M143.81,174.25
			c-3.77,12.146,4.363,23.939,16.957,23.939c11.516,0,18.473-8.578,17.445-22.44C174.493,159.011,148.474,159.191,143.81,174.25z"/>
		<path clip-path="url(#SVGID_2_)" fill-rule="evenodd" clip-rule="evenodd" fill="#733B88" d="M168.29,147.41
			c-4.965,0-9.928,0-14.873,0c-11.48-30.165-7.408-95.469-40.924-101.854c-7.852-1.494-101.791-2.47-130.727-0.532
			c-38.889,2.611-35.686,70.512-46.762,102.387c-5.131,0-10.268,0-15.41,0c4.801-16.414,10.33-59.229,15.41-76.883
			c1.742-6.048,2.811-12.773,5.316-17.537c4.967-9.426,17.199-18.461,29.758-19.658c23.066-2.203,49.033,0,73.871,0
			c25.516,0,50.764-1.845,73.852,0c11.82,0.943,22.807,8.408,28.166,16.475c6.383,9.586,8.041,24.213,11.697,37.197
			C161.384,100.215,165.81,135.377,168.29,147.41z"/>
	</g>
</g>
<g>
</g>
<g>
</g>
<g>
</g>
<g>
</g>
<g>
</g>
<g>
</g>
</svg>
