<?xml version="1.0" encoding="utf-8"?>
<!-- Generator: Adobe Illustrator 16.0.0, SVG Export Plug-In . SVG Version: 6.00 Build 0)  -->
<!DOCTYPE svg PUBLIC "-//W3C//DTD SVG 1.1//EN" "http://www.w3.org/Graphics/SVG/1.1/DTD/svg11.dtd">
<svg version="1.1" id="Capa_1" xmlns="http://www.w3.org/2000/svg" xmlns:xlink="http://www.w3.org/1999/xlink" x="0px" y="0px"
	 width="197.297px" height="68.918px" viewBox="0 0 197.297 68.918" enable-background="new 0 0 197.297 68.918"
	 xml:space="preserve">
<g>
	<path fill-rule="evenodd" clip-rule="evenodd" fill="#FFFFFF" d="M131.104,32.833c-8.912,0-16.139,7.224-16.139,16.136
		c0,8.913,7.227,16.139,16.139,16.139s16.137-7.226,16.137-16.139C147.241,40.057,140.016,32.833,131.104,32.833z M131.104,58.139
		c-5.064,0-9.17-4.105-9.17-9.17c0-5.063,4.105-9.168,9.17-9.168s9.168,4.105,9.168,9.168
		C140.272,54.034,136.168,58.139,131.104,58.139z"/>
	<path fill-rule="evenodd" clip-rule="evenodd" fill="#FFFFFF" d="M176.583,32.833c-8.912,0-16.139,7.224-16.139,16.136
		c0,8.913,7.227,16.139,16.139,16.139s16.137-7.226,16.137-16.139C192.719,40.057,185.495,32.833,176.583,32.833z M176.583,58.139
		c-5.064,0-9.168-4.105-9.168-9.17c0-5.063,4.104-9.168,9.168-9.168c5.063,0,9.168,4.105,9.168,9.168
		C185.75,54.034,181.645,58.139,176.583,58.139z"/>
	<path fill="#FFFFFF" d="M13.564,36.217L24.905,52.44V36.043c0-1.22,0.265-2.137,0.795-2.746c0.529-0.611,1.243-0.918,2.144-0.918
		c0.929,0,2.749,0.307,3.285,0.918c0.537,0.609,0.806,1.526,0.806,2.746v24.85c0,2.772-1.16,4.159-3.482,4.159
		c-0.581,0-1.103-0.083-1.566-0.249c-0.465-0.164-0.9-0.428-1.307-0.785c-0.406-0.359-0.784-0.779-1.132-1.262
		c-0.348-0.481-0.697-0.973-1.045-1.477L11.797,45.047v16.342c0,1.205-0.283,2.118-0.85,2.736c-0.566,0.617-1.291,0.927-2.176,0.927
		c-0.915,0-2.164-0.313-2.716-0.938c-0.553-0.626-0.827-1.534-0.827-2.726V37.014c0-1.034,0.115-1.846,0.348-2.436
		c0.275-0.646,0.733-1.174,1.371-1.584c0.639-0.409,1.328-0.615,2.068-0.615c0.58,0,1.076,0.094,1.49,0.281s0.775,0.439,1.089,0.754
		c0.312,0.317,0.632,0.727,0.958,1.229C12.879,35.147,13.217,35.67,13.564,36.217z"/>
	<path fill="#FFFFFF" d="M49.019,61.151V36.26c0-1.293,0.328-2.264,0.985-2.91c0.656-0.646,1.504-0.971,2.546-0.971
		c1.073,0,1.941,0.32,2.606,0.961c0.664,0.639,0.996,1.613,0.996,2.92v24.891c0,1.309-0.332,2.284-0.996,2.932
		c-0.665,0.646-1.533,0.97-2.606,0.97c-1.025,0-1.87-0.327-2.534-0.981S49.019,62.444,49.019,61.151z"/>
	<path fill="#FFFFFF" d="M77.231,34.387h8.591c2.233,0,4.15,0.191,5.748,0.574c1.599,0.384,3.049,1.104,4.352,2.158
		c3.388,2.685,5.083,6.769,5.083,12.248c0,1.809-0.17,3.459-0.51,4.953c-0.341,1.492-0.866,2.84-1.576,4.038
		c-0.711,1.198-1.621,2.271-2.73,3.216c-0.873,0.726-1.827,1.308-2.863,1.746c-1.036,0.439-2.15,0.747-3.341,0.925
		c-1.191,0.179-2.534,0.268-4.028,0.268h-8.591c-1.198,0-2.101-0.167-2.708-0.503c-0.607-0.338-1.002-0.809-1.187-1.419
		c-0.187-0.609-0.278-1.4-0.278-2.373V38.127c0-1.316,0.318-2.268,0.955-2.857C74.782,34.681,75.811,34.387,77.231,34.387z
		 M79.783,40.315v17.801h5.361c0.953,0,1.701-0.023,2.242-0.072c0.541-0.047,1.101-0.166,1.681-0.357
		c0.579-0.19,1.081-0.459,1.507-0.805c1.92-1.502,2.879-4.09,2.879-7.764c0-2.588-0.422-4.526-1.266-5.814s-1.883-2.107-3.12-2.459
		s-3.745-0.529-5.496-0.529H79.783z"/>
	<path fill-rule="evenodd" clip-rule="evenodd" fill="#FFFFFF" d="M192.362,30.718c-0.135,1.088-3.805,3.127-5.438-0.271
		c-4.381-8.986-13.27-6.9-19.131-8.478c-9.875-15.718-47.609-20.748-46.795,8.884c-1.359,2.176-5.029,2.039-5.572,0.271
		c-2.176-34.797,39.283-35.748,56.969-15.9C194.672,17.125,192.499,29.903,192.362,30.718z"/>
</g>
<g>
</g>
<g>
</g>
<g>
</g>
<g>
</g>
<g>
</g>
<g>
</g>
</svg>
