<?xml version="1.0" encoding="utf-8"?>
<!-- Generator: Adobe Illustrator 16.0.0, SVG Export Plug-In . SVG Version: 6.00 Build 0)  -->
<!DOCTYPE svg PUBLIC "-//W3C//DTD SVG 1.1//EN" "http://www.w3.org/Graphics/SVG/1.1/DTD/svg11.dtd">
<svg version="1.1" id="Capa_1" xmlns="http://www.w3.org/2000/svg" xmlns:xlink="http://www.w3.org/1999/xlink" x="0px" y="0px"
	 width="391.891px" height="359.459px" viewBox="0 0 391.891 359.459" enable-background="new 0 0 391.891 359.459"
	 xml:space="preserve">
<g>
	<path fill="#D6803B" d="M79.045,129.406c-10.928,1.971-11.082,9.563-9.809,15.887l22.621-6.063
		C90.565,134.154,87.299,127.924,79.045,129.406"/>
	<path fill="#D6803B" d="M97.991,292.556l12.652,50.504c3.924,14.686,15.559,12.688,30.244,8.758
		c14.691-3.926,25.771-7.99,21.851-22.676l-12.651-50.511c-4.059-15.184-5.129-26.198-7.727-33.146L88.589,259.89
		C89.052,268.185,94.294,278.728,97.991,292.556"/>
	<path fill="#FFFFFF" d="M127.778,135.912c-1.58,0.422-3.098,0.832-4.645,1.25c1.238,1.23,2.18,2.791,2.664,4.598l24.377,90.994
		c0.684,2.539,0.339,5.113-0.764,7.287c1.938-0.517,3.859-1.024,5.848-1.558c83.034-22.248,184.635,5.701,213.127,14.541
		L305.088,16.762C284.831,38.662,210.813,113.662,127.778,135.912"/>
	<path fill="#FFFFFF" d="M67.456,254.914l-24.377-90.992c-0.116-0.428-0.189-0.85-0.248-1.275
		C10.507,176.948,0.069,193.215,8.037,222.96c7.996,29.85,25.261,38.68,60.665,34.799C68.157,256.901,67.731,255.947,67.456,254.914
		"/>
	<path fill="#68A0A0" d="M311.708,5.066c-5.027,1.348-8.01,6.514-6.662,11.537l0.041,0.16l63.301,236.263l0.484,1.812
		c1.346,5.027,6.512,8.009,11.539,6.664c5.025-1.351,8.004-6.517,6.66-11.541L323.245,11.73
		C321.897,6.701,316.735,3.723,311.708,5.066"/>
	<path fill="#68A0A0" d="M150.174,232.754l-24.377-90.994c-0.483-1.811-1.426-3.367-2.664-4.598c-2.51-2.512-6.246-3.654-9.92-2.672
		l-36.377,9.746L54.217,150.3l-3.873,1.035c-5.059,1.355-8.207,6.254-7.514,11.311c0.059,0.424,0.133,0.85,0.246,1.275l24.38,90.992
		c0.276,1.033,0.7,1.988,1.245,2.844c2.344,3.695,6.891,5.613,11.34,4.424l8.547-2.293l53.771-14.402l0.549-0.147
		c2.942-0.789,5.228-2.778,6.502-5.297C150.514,237.865,150.858,235.293,150.174,232.754"/>
</g>
<g>
	<path fill="#4D9175" d="M82.276,198.646c-5.611,1.597-8.869,7.435-7.275,13.047c1.595,5.611,7.438,8.869,13.05,7.273
		c5.612-1.594,8.868-7.436,7.274-13.049C93.729,200.308,87.889,197.053,82.276,198.646z M86.803,214.582
		c-3.188,0.903-6.509-0.947-7.414-4.135c-0.906-3.189,0.944-6.511,4.133-7.414c3.188-0.906,6.51,0.942,7.414,4.133
		C91.842,210.354,89.993,213.676,86.803,214.582z"/>
	<path fill="#4D9175" d="M110.913,190.51c-5.612,1.595-8.869,7.437-7.274,13.048c1.595,5.612,7.437,8.868,13.048,7.274
		c5.613-1.597,8.869-7.438,7.274-13.049C122.368,192.17,116.525,188.916,110.913,190.51z M115.44,206.444
		c-3.188,0.904-6.508-0.946-7.414-4.135c-0.905-3.188,0.945-6.508,4.133-7.414c3.188-0.905,6.509,0.945,7.414,4.133
		C120.479,202.217,118.628,205.539,115.44,206.444z"/>
	<path fill="#4D9175" d="M120.469,186.354c0.111,0.711-1.837,2.649-3.471,0.803c-4.367-4.875-9.59-1.971-13.563-1.918
		c-9.031-8.127-33.691-4.545-27.877,13.969c-0.467,1.613-2.803,2.184-3.461,1.17c-7.595-21.525,18.342-29.541,33.027-20.205
		C119.495,177.383,120.41,185.815,120.469,186.354z"/>
</g>
</svg>
