<?xml version="1.0" encoding="utf-8"?>
<!-- Generator: Adobe Illustrator 16.0.0, SVG Export Plug-In . SVG Version: 6.00 Build 0)  -->
<!DOCTYPE svg PUBLIC "-//W3C//DTD SVG 1.1//EN" "http://www.w3.org/Graphics/SVG/1.1/DTD/svg11.dtd">
<svg version="1.1" id="Capa_1" xmlns="http://www.w3.org/2000/svg" xmlns:xlink="http://www.w3.org/1999/xlink" x="0px" y="0px"
	 width="93.243px" height="109.27px" viewBox="0 0 93.243 109.27" enable-background="new 0 0 93.243 109.27" xml:space="preserve">
<path fill-rule="evenodd" clip-rule="evenodd" fill="#733B88" d="M73.551,99.272c0,3.438,2.787,6.226,6.225,6.226
	s6.226-2.787,6.226-6.226c0-3.438-2.788-6.224-6.226-6.224S73.551,95.835,73.551,99.272 M76.239,99.272
	c0-1.953,1.582-3.536,3.536-3.536c1.953,0,3.537,1.583,3.537,3.536c0,1.953-1.584,3.537-3.537,3.537
	C77.821,102.81,76.239,101.226,76.239,99.272"/>
<path fill-rule="evenodd" clip-rule="evenodd" fill="#733B88" d="M56.009,99.272c0,3.438,2.787,6.226,6.226,6.226
	c3.437,0,6.224-2.787,6.224-6.226c0-3.438-2.787-6.224-6.224-6.224C58.796,93.049,56.009,95.835,56.009,99.272 M58.697,99.272
	c0-1.953,1.584-3.536,3.537-3.536s3.536,1.583,3.536,3.536c0,1.953-1.583,3.537-3.536,3.537S58.697,101.226,58.697,99.272"/>
<path fill-rule="evenodd" clip-rule="evenodd" fill="#733B88" d="M56.147,92.233c0.052,0.42,1.468,1.206,2.097-0.104
	c1.689-3.467,5.119-2.662,7.379-3.27c3.809-6.063,18.364-8.003,18.05,3.426c0.525,0.839,1.94,0.787,2.15,0.105
	c0.839-13.422-15.153-13.789-21.975-6.133C55.256,86.99,56.095,91.918,56.147,92.233"/>
<rect x="8.361" y="29.055" fill="#8DC3C9" width="41.352" height="77.099"/>
<path fill="#8DC3C9" d="M43.044,100.708H15.03v-80.95c0-3.689,2.991-6.68,6.682-6.68h14.651c3.689,0,6.681,2.991,6.681,6.68V100.708
	z"/>
<rect x="21.074" y="4.736" fill="#8DC3C9" width="15.928" height="69.314"/>
<rect x="15.031" y="33.533" fill="#FFFFFF" width="7.911" height="8.708"/>
<rect x="25.082" y="33.533" fill="#FFFFFF" width="7.911" height="8.708"/>
<rect x="35.133" y="33.533" fill="#FFFFFF" width="7.911" height="8.708"/>
<rect x="15.031" y="46.594" fill="#FFFFFF" width="7.911" height="8.708"/>
<rect x="25.082" y="46.594" fill="#FFFFFF" width="7.911" height="8.708"/>
<rect x="35.133" y="46.594" fill="#FFFFFF" width="7.911" height="8.708"/>
<rect x="15.031" y="59.656" fill="#FFFFFF" width="7.911" height="8.708"/>
<rect x="25.082" y="59.656" fill="#FFFFFF" width="7.911" height="8.708"/>
<rect x="35.133" y="59.656" fill="#FFFFFF" width="7.911" height="8.708"/>
<rect x="21.074" y="18.887" fill="#D6803B" width="15.928" height="4.75"/>
<rect x="16.582" y="74.634" fill="#D6803B" width="24.057" height="31.52"/>
</svg>
