<?xml version="1.0" encoding="utf-8"?>
<!-- Generator: Adobe Illustrator 16.0.0, SVG Export Plug-In . SVG Version: 6.00 Build 0)  -->
<!DOCTYPE svg PUBLIC "-//W3C//DTD SVG 1.1//EN" "http://www.w3.org/Graphics/SVG/1.1/DTD/svg11.dtd">
<svg version="1.1" id="Capa_1" xmlns="http://www.w3.org/2000/svg" xmlns:xlink="http://www.w3.org/1999/xlink" x="0px" y="0px"
	 width="7px" height="11px" viewBox="0 0 7 11" enable-background="new 0 0 7 11" xml:space="preserve">
<path fill="#733B88" d="M4.861,0.383H2.013c-0.903,0-1.639,0.734-1.639,1.638v7.113c0,0.902,0.735,1.638,1.639,1.638h2.849
	c0.903,0,1.637-0.735,1.637-1.638V2.021C6.498,1.117,5.765,0.383,4.861,0.383 M1.029,2.43h4.815v5.459H1.029V2.43z M2.013,1.037
	h2.849c0.542,0,0.983,0.441,0.983,0.983v0.083H1.029V2.021C1.029,1.479,1.471,1.037,2.013,1.037 M4.861,10.115H2.013
	c-0.542,0-0.983-0.44-0.983-0.981V8.216h4.815v0.918C5.845,9.675,5.403,10.115,4.861,10.115"/>
</svg>
