<?xml version="1.0" encoding="utf-8"?>
<!-- Generator: Adobe Illustrator 16.0.0, SVG Export Plug-In . SVG Version: 6.00 Build 0)  -->
<!DOCTYPE svg PUBLIC "-//W3C//DTD SVG 1.1//EN" "http://www.w3.org/Graphics/SVG/1.1/DTD/svg11.dtd">
<svg version="1.1" id="Capa_1" xmlns="http://www.w3.org/2000/svg" xmlns:xlink="http://www.w3.org/1999/xlink" x="0px" y="0px"
	 width="93.243px" height="109.27px" viewBox="0 0 93.243 109.27" enable-background="new 0 0 93.243 109.27" xml:space="preserve">
<path fill="#733B88" d="M19.297,9.176c2.575,4.85,3.519,11.161,8.92,13.758c3.188,1.533,8.27,0.683,10.107-2.642
	c2.856-5.172-2.002-9.307-6.343-11.213c-6.238-2.739-13.034-4.493-19.7-5.807C11.37,3.093,9.276,4.919,9.753,5.013
	c4.661,0.919,9.242,2.121,13.754,3.608c4.198,1.384,9.408,2.801,11.927,6.734c1.15,1.796,1.334,4.336-0.001,6.08
	c-1.303,1.701-5.248-0.438-6.468-1.265c-3.872-2.625-4.83-8.638-6.899-12.535C21.701,6.947,18.919,8.464,19.297,9.176"/>
<path fill="#8DC3C9" d="M84.981,82.569L65.747,21.635L37.923,11.522l-12.394,4.176L9.786,38.919l19.233,60.935
	c1.295,4.195,5.746,6.545,9.94,5.25L79.731,92.51C83.925,91.215,86.276,86.764,84.981,82.569 M37.064,26.837
	c-2.912,1.261-6.152-0.678-6.416-3.841c-0.16-1.915,0.951-3.772,2.714-4.535c2.913-1.262,6.153,0.677,6.417,3.84
	C39.939,24.218,38.828,26.073,37.064,26.837 M53.642,65.371c-0.303-0.954-0.898-1.66-1.785-2.118
	c-0.889-0.459-2.193-0.705-3.922-0.738c-2.345,0.035-4.236-0.313-5.672-1.046c-1.436-0.733-2.44-2-3.015-3.802
	c-0.557-1.748-0.507-3.333,0.149-4.756c0.655-1.423,1.827-2.526,3.515-3.309l-1.12-3.512l2.512-0.801l1.124,3.529
	c1.844-0.331,3.451-0.043,4.818,0.863c1.369,0.907,2.379,2.382,3.031,4.427l-3.115,0.993c-0.43-1.346-1.111-2.331-2.045-2.955
	c-0.936-0.625-1.99-0.749-3.166-0.375c-1.25,0.398-2.085,1.023-2.502,1.874c-0.418,0.851-0.446,1.843-0.085,2.977
	c0.328,1.028,0.916,1.756,1.765,2.186c0.849,0.43,2.202,0.664,4.058,0.703c2.385,0.011,4.268,0.371,5.648,1.08
	c1.383,0.71,2.357,1.96,2.928,3.751c0.582,1.822,0.496,3.445-0.252,4.868c-0.748,1.423-2.045,2.539-3.887,3.348l0.973,3.052
	l-2.496,0.795l-0.967-3.036c-1.883,0.39-3.589,0.201-5.118-0.566c-1.529-0.768-2.623-2.261-3.283-4.478l0.007-0.09l3.019-0.962
	c0.52,1.632,1.304,2.663,2.352,3.094c1.047,0.431,2.165,0.457,3.351,0.079c1.367-0.436,2.332-1.102,2.891-1.998
	C53.915,67.552,54.011,66.525,53.642,65.371"/>
<path fill="#D6803B" d="M33.692,16.58c-3.334,0.838-5.359,4.22-4.522,7.554c0.838,3.335,4.22,5.359,7.554,4.522
	c3.335-0.837,5.359-4.219,4.522-7.554S37.027,15.742,33.692,16.58 M36.321,27.045c-2.445,0.614-4.926-0.871-5.54-3.316
	c-0.614-2.446,0.871-4.926,3.316-5.54c2.446-0.614,4.926,0.871,5.54,3.316C40.25,23.951,38.767,26.432,36.321,27.045"/>
<path fill="#733B88" d="M38.324,20.292c2.857-5.172-2.002-9.307-6.343-11.213c-6.238-2.74-13.034-4.493-19.7-5.807
	c-0.91-0.179-3.004,1.646-2.528,1.741c4.661,0.919,23.162,6.408,25.681,10.342c1.15,1.796,1.334,4.335-0.001,6.079
	C34.131,23.136,36.488,23.617,38.324,20.292"/>
</svg>
